<svg xmlns="http://www.w3.org/2000/svg" width="359" height="7" viewBox="0 0 359 7" fill="none">
  <path d="M1 6L22.4461 2.39561C31.8825 0.809658 41.5175 0.809659 50.9539 2.39561L58.1461 3.60439C67.5825 5.19034 77.2175 5.19034 86.6539 3.60439L93.8461 2.39561C103.283 0.809658 112.917 0.809659 122.354 2.39561L129.546 3.60439C138.983 5.19034 148.617 5.19034 158.054 3.60439L165.246 2.39561C174.683 0.809658 184.317 0.809659 193.754 2.39561L200.946 3.60439C210.383 5.19034 220.017 5.19034 229.454 3.60439L236.646 2.39561C246.083 0.809658 255.717 0.809659 265.154 2.39561L272.346 3.60439C281.783 5.19034 291.417 5.19034 300.854 3.60439L308.046 2.39561C317.483 0.809658 327.117 0.809659 336.554 2.39561L358 6" stroke="black" stroke-width="0.75"/>
</svg>